# xmcd CD database file
#
# Track frame offsets:
#	187
#	16075
#	29425
#	42470
#	56282
#	70075
#	84522
#	101792
#	117795
#
# Disc length: 2045 seconds
#
# Revision: 0
# Processed by: cddbd v1.5.1PL0 Copyright (c) Steve Scherf et al.
# Submitted via: CDex 1.50
#
DISCID=6b07fb09
DTITLE=Jerry Wiggins - Joue Pour La Danse
DYEAR=1950
DGENRE=Jazz
TTITLE0=Too marvellous for words
TTITLE1=Wiggin' with wig
TTITLE2=Have you met Miss Jone?
TTITLE3=Three little words
TTITLE4=Why was I born?
TTITLE5=Coffee Time
TTITLE6=I get a kick
TTITLE7=All the things you are
TTITLE8=Iwan-Wig-Digs "Chic"
EXTD=YEAR: 1950
EXTT0=
EXTT1=
EXTT2=
EXTT3=
EXTT4=
EXTT5=
EXTT6=
EXTT7=
EXTT8=
PLAYORDER=
